<?xml version="1.0" standalone="no"?>
<!DOCTYPE svg PUBLIC "-//W3C//DTD SVG 20010904//EN"
 "http://www.w3.org/TR/2001/REC-SVG-20010904/DTD/svg10.dtd">
<svg version="1.0" xmlns="http://www.w3.org/2000/svg"
 width="300.000000pt" height="256.000000pt" viewBox="0 0 300.000000 256.000000"
 preserveAspectRatio="xMidYMid meet">

<g transform="translate(0.000000,256.000000) scale(0.100000,-0.100000)"
fill="#000000" stroke="none">
<path d="M319 2333 c-1 -5 -1 -16 0 -25 2 -12 -5 -18 -19 -18 -36 0 -56 -17
-74 -64 -25 -66 -18 -105 23 -133 19 -13 45 -23 57 -23 37 0 28 -16 -14 -28
-43 -13 -87 -52 -59 -52 31 0 27 -19 -8 -36 -19 -9 -32 -21 -29 -26 4 -6 10
-4 16 6 13 24 37 20 44 -8 3 -13 11 -23 17 -23 7 0 21 -1 32 -2 18 -2 18 -3
-6 -24 -44 -37 -52 -61 -39 -120 7 -29 16 -62 21 -75 5 -13 9 -35 9 -50 0 -28
16 -52 34 -52 5 0 1 6 -10 14 -15 12 -17 17 -6 27 6 7 12 9 12 3 1 -5 8 2 16
16 14 23 15 23 11 3 -3 -15 -1 -20 9 -16 20 8 17 -24 -3 -37 -12 -8 -13 -10
-3 -7 8 2 20 14 26 26 11 22 12 22 19 -6 21 -84 111 -204 193 -254 l32 -21 33
21 c44 27 130 118 152 161 10 19 25 57 35 84 15 44 18 48 24 29 5 -15 15 -23
31 -23 29 0 37 12 45 67 5 33 4 41 -6 33 -6 -6 -10 -20 -7 -30 4 -17 1 -20
-18 -17 -29 5 -36 32 -15 56 9 10 13 20 10 24 -4 3 -15 -4 -25 -16 l-18 -22
-1 27 c0 15 5 39 12 53 8 18 8 35 1 59 -9 28 -8 33 3 29 20 -7 66 -72 59 -83
-9 -14 9 -12 23 2 9 9 12 9 13 -2 0 -8 4 -5 9 7 14 34 -7 79 -46 104 -19 11
-34 22 -34 24 0 1 20 0 43 -2 29 -4 54 0 73 10 l29 15 -28 13 c-34 15 -35 35
-2 43 16 4 23 11 19 18 -6 9 -9 9 -12 0 -2 -7 -14 -12 -27 -12 -18 0 -22 -4
-18 -19 4 -15 0 -18 -21 -14 -16 3 -26 12 -26 23 0 11 -10 19 -25 22 -14 3
-23 1 -22 -6 3 -17 -58 -19 -72 -2 -10 12 -9 14 8 9 12 -3 33 2 47 12 37 24
16 45 -50 46 -48 1 -49 1 -16 9 56 13 77 63 45 106 -13 17 -13 16 -3 -13 10
-27 9 -35 -7 -52 -17 -20 -64 -28 -78 -14 -4 3 -51 7 -104 8 -54 1 -74 0 -45
-2 51 -4 52 -4 52 -37 0 -21 -8 -40 -24 -55 -28 -26 -37 -53 -25 -72 7 -10 11
-11 17 -3 4 7 16 13 27 15 11 3 26 17 34 33 13 27 14 28 24 10 6 -10 21 -32
34 -47 28 -35 29 -47 3 -47 -13 0 -22 9 -26 26 -4 14 -9 22 -13 17 -3 -4 -21
-9 -40 -10 -21 -2 -51 -16 -79 -37 -43 -34 -62 -38 -62 -13 -1 7 -6 25 -13 41
-11 26 -14 27 -26 12 -12 -14 -12 -16 3 -10 11 4 16 1 16 -11 0 -9 -7 -16 -17
-14 -10 1 -39 1 -65 0 -41 -1 -48 -4 -48 -21 0 -11 -4 -20 -9 -20 -5 0 -12 -7
-15 -16 -4 -12 -2 -15 9 -10 12 4 15 -4 15 -42 0 -34 -3 -43 -10 -32 -5 8 -10
10 -10 4 0 -11 -62 -10 -80 1 -6 3 -10 19 -10 35 0 21 11 38 42 64 l42 36 -35
0 -34 1 27 24 c19 16 26 29 21 41 -5 14 -2 16 23 10 22 -5 25 -4 14 4 -13 9
-11 13 10 30 33 26 38 25 32 -5 -2 -14 1 -32 8 -40 11 -14 15 -14 31 1 16 14
21 15 36 3 12 -10 11 -5 -5 18 -12 17 -22 33 -22 36 0 3 33 10 73 17 81 12
117 25 117 40 0 14 -26 12 -59 -5 -16 -8 -48 -17 -72 -20 l-44 -6 28 26 29 26
-39 -7 c-51 -8 -71 14 -75 85 l-3 53 -27 -21 c-14 -12 -36 -21 -47 -21 -27 0
-27 -23 0 -61 18 -26 18 -29 4 -29 -22 0 -99 76 -90 90 3 5 17 10 31 10 14 0
23 4 19 9 -3 6 3 15 14 20 10 6 21 18 25 26 3 9 2 14 -3 11 -5 -3 -11 8 -13
25 -4 26 -2 30 14 26 10 -3 16 -1 12 4 -6 11 -34 12 -35 2z m151 -273 c0 -5
-2 -10 -4 -10 -3 0 -8 5 -11 10 -3 6 -1 10 4 10 6 0 11 -4 11 -10z m235 -140
c4 -6 -7 -10 -27 -10 -25 0 -29 3 -18 10 19 13 37 13 45 0z m-205 -35 c0 -8
14 -22 31 -31 31 -15 32 -15 63 15 27 27 39 31 84 31 48 0 52 -2 49 -22 -2
-20 3 -23 35 -23 35 0 37 -2 43 -37 4 -20 13 -44 20 -55 8 -10 14 -42 15 -73
l0 -55 -63 65 c-34 36 -84 89 -111 118 -26 29 -49 52 -50 50 -2 -2 -49 -55
-107 -117 l-104 -115 -7 45 c-9 58 -10 204 -1 212 3 4 28 7 55 7 36 0 48 -4
48 -15z m270 9 c0 -9 -31 -37 -36 -32 -9 9 8 38 22 38 8 0 14 -3 14 -6z m-92
-166 c-3 -29 -6 -32 -40 -35 -33 -2 -38 1 -39 20 l-2 22 -4 -22 c-7 -36 -23
-27 -23 12 l0 35 56 0 55 0 -3 -32z m-298 -10 c0 -30 0 -31 -20 -13 -19 17
-19 19 -2 31 23 18 22 18 22 -18z m168 -105 c-4 -43 -28 -59 -28 -17 0 15 -3
24 -7 20 -4 -4 -8 -15 -8 -24 0 -11 -10 -17 -32 -18 -31 -2 -33 1 -33 31 0 42
5 45 62 45 l49 0 -3 -37z m250 0 c-4 -43 -28 -59 -28 -17 0 15 -3 24 -7 20 -4
-4 -8 -15 -8 -24 0 -11 -10 -17 -32 -18 -31 -2 -33 1 -33 31 0 42 5 45 62 45
l49 0 -3 -37z m-121 -54 c79 -82 83 -93 48 -129 -16 -16 -45 -41 -66 -56 l-38
-26 -33 20 c-18 12 -51 39 -72 61 l-39 40 69 75 c38 41 70 75 71 75 1 1 28
-26 60 -60z"/>
<path d="M630 1719 c0 -5 5 -7 10 -4 6 3 10 8 10 11 0 2 -4 4 -10 4 -5 0 -10
-5 -10 -11z"/>
<path d="M575 1526 c-7 -6 -17 -27 -20 -47 -6 -32 -3 -39 23 -58 39 -27 53
-27 87 4 21 21 26 31 20 53 -4 15 -13 35 -22 44 -17 19 -66 21 -88 4z m88 -15
c17 -17 1 -24 -21 -10 -26 16 -54 5 -45 -18 7 -17 6 -17 -11 0 -14 14 -15 21
-6 32 13 15 66 13 83 -4z m-23 -21 c8 -5 12 -11 10 -14 -3 -2 -14 2 -24 10
-22 15 -10 19 14 4z m-58 -21 c2 -6 16 -12 31 -12 28 -2 36 -12 15 -20 -8 -4
-7 -6 3 -6 10 -1 19 9 23 24 7 27 26 35 26 10 0 -17 -39 -55 -57 -55 -24 0
-63 32 -63 51 0 20 16 26 22 8z"/>
<path d="M590 1440 c0 -5 5 -10 11 -10 5 0 7 5 4 10 -3 6 -8 10 -11 10 -2 0
-4 -4 -4 -10z"/>
<path d="M907 2318 c-2 -7 4 -29 14 -49 10 -20 15 -40 11 -44 -4 -5 -2 -5 5
-1 19 11 63 -5 64 -23 0 -11 2 -12 6 -3 4 10 9 9 24 -4 24 -22 24 -18 -5 48
-25 57 -56 93 -56 66 0 -11 -7 -14 -26 -10 -16 3 -23 9 -20 18 3 8 1 14 -3 14
-5 0 -11 -6 -14 -12z"/>
<path d="M830 2239 c0 -5 5 -7 11 -3 6 3 24 -3 39 -15 22 -15 31 -18 36 -8 4
6 4 9 -1 5 -4 -4 -19 2 -33 12 -27 22 -52 26 -52 9z"/>
<path d="M490 2199 c0 -5 5 -7 10 -4 6 3 10 8 10 11 0 2 -4 4 -10 4 -5 0 -10
-5 -10 -11z"/>
<path d="M550 2195 c0 -9 9 -15 21 -15 18 0 19 2 5 15 -8 8 -17 15 -20 15 -3
0 -6 -7 -6 -15z"/>
<path d="M662 2195 c-11 -13 -9 -15 8 -15 11 0 20 7 20 15 0 19 -11 19 -28 0z"/>
<path d="M941 2194 c0 -11 3 -14 6 -6 3 7 2 16 -1 19 -3 4 -6 -2 -5 -13z"/>
<path d="M1278 2193 c7 -3 12 -23 12 -52 0 -53 13 -71 50 -71 40 0 51 13 59
73 7 53 6 57 -13 57 -15 0 -17 -3 -8 -12 25 -25 5 -109 -26 -108 -25 1 -34 21
-31 69 4 51 4 51 -26 50 -16 0 -24 -3 -17 -6z"/>
<path d="M1465 2135 c0 -37 4 -65 10 -65 6 0 9 21 6 52 l-3 51 43 -51 c24 -28
47 -51 52 -51 4 -1 7 26 7 58 0 38 4 61 13 64 6 3 3 6 -8 6 -18 1 -20 -4 -16
-46 l3 -47 -38 46 c-56 67 -69 63 -69 -17z"/>
<path d="M1645 2135 c0 -58 2 -65 20 -65 18 0 20 5 16 56 -2 40 1 59 10 65 10
6 5 9 -16 9 l-30 0 0 -65z"/>
<path d="M1761 2160 c11 -22 24 -51 29 -65 5 -14 13 -25 17 -25 5 0 19 27 32
60 13 32 29 61 35 64 6 2 1 5 -12 5 -13 1 -21 -3 -18 -8 3 -5 -1 -26 -10 -47
l-16 -39 -19 38 c-11 21 -17 42 -14 47 3 6 -5 10 -19 10 l-24 0 19 -40z"/>
<path d="M1919 2191 c9 -6 12 -25 10 -65 l-4 -57 44 3 c29 2 46 8 49 18 4 12
2 13 -9 3 -7 -7 -23 -13 -36 -13 -18 0 -23 6 -23 26 0 23 3 26 25 22 15 -3 25
-1 25 7 0 6 -10 11 -22 11 -17 -1 -24 5 -26 23 -3 21 -1 23 27 19 17 -2 31 -1
31 4 0 4 -24 8 -52 8 -33 0 -48 -3 -39 -9z"/>
<path d="M2065 2135 c0 -58 2 -65 20 -65 18 0 20 5 17 60 -3 50 -1 60 12 60
24 0 31 -28 13 -48 -15 -16 -14 -20 7 -46 12 -16 28 -27 35 -25 9 3 6 12 -8
31 -13 16 -17 29 -11 33 16 10 12 52 -6 59 -9 3 -30 6 -47 6 l-32 0 0 -65z"/>
<path d="M2230 2185 c-17 -21 -5 -44 30 -56 16 -6 30 -17 30 -25 0 -21 -29
-29 -52 -15 -16 10 -19 10 -16 -1 7 -20 63 -22 82 -3 9 9 16 20 16 25 0 16
-31 40 -51 40 -12 0 -19 7 -19 20 0 23 29 27 48 8 9 -9 12 -8 12 5 0 22 -62
24 -80 2z"/>
<path d="M2368 2193 c7 -3 12 -25 12 -58 0 -33 -5 -55 -12 -58 -7 -3 3 -5 22
-5 19 0 29 2 23 5 -8 3 -13 25 -13 58 0 33 5 55 13 58 6 3 -4 5 -23 5 -19 0
-29 -2 -22 -5z"/>
<path d="M2460 2191 c0 -5 9 -7 21 -4 20 6 21 3 17 -56 -3 -56 -1 -61 17 -61
18 0 20 5 17 61 l-4 62 26 -7 c15 -4 26 -2 26 4 0 6 -26 10 -60 10 -33 0 -60
-4 -60 -9z"/>
<path d="M2636 2159 c16 -26 24 -51 21 -65 -3 -19 0 -24 18 -24 18 0 21 4 17
30 -3 19 3 43 17 65 14 23 16 35 8 35 -7 0 -18 -15 -25 -32 l-13 -33 -14 25
c-7 14 -11 28 -9 32 3 5 -6 8 -21 8 l-25 0 26 -41z"/>
<path d="M730 2156 c0 -8 -6 -17 -12 -19 -8 -3 -6 -6 5 -6 11 -1 17 6 17 19 0
11 -2 20 -5 20 -3 0 -5 -6 -5 -14z"/>
<path d="M925 2159 c-4 -6 -5 -12 -2 -15 2 -3 7 2 10 11 7 17 1 20 -8 4z"/>
<path d="M966 2144 c-16 -14 -34 -23 -41 -20 -7 2 -21 -4 -31 -15 -16 -18 -16
-19 -1 -13 9 3 17 10 17 15 0 4 6 6 14 3 8 -3 29 8 48 25 18 17 31 30 28 30
-3 0 -18 -11 -34 -25z"/>
<path d="M508 2133 c7 -3 16 -2 19 1 4 3 -2 6 -13 5 -11 0 -14 -3 -6 -6z"/>
<path d="M930 2056 c0 -2 7 -7 16 -10 8 -3 12 -2 9 4 -6 10 -25 14 -25 6z"/>
<path d="M1611 1964 c-18 -14 -41 -44 -52 -65 -18 -35 -23 -39 -59 -39 -29 0
-42 5 -50 20 -23 44 -112 12 -167 -59 -53 -69 -54 -141 -1 -141 49 0 146 77
163 129 5 16 15 21 41 21 19 0 34 -5 34 -10 0 -6 -11 -38 -25 -72 -26 -64 -65
-114 -100 -128 -19 -8 -19 -9 2 -9 36 -1 98 63 140 144 32 63 42 75 63 75 26
0 96 37 87 46 -3 3 -14 1 -25 -5 -28 -15 -72 -14 -72 2 0 24 46 92 64 95 16 3
18 -1 13 -24 -5 -27 -4 -27 9 -9 36 49 -14 72 -65 29z m-201 -110 c0 -9 -8
-23 -17 -31 -16 -13 -16 -14 -2 -10 26 8 12 -29 -26 -69 -53 -56 -94 -41 -75
27 19 65 120 135 120 83z"/>
<path d="M1836 1981 c-18 -7 -18 -8 -2 -14 28 -11 13 -64 -51 -192 -71 -141
-76 -155 -59 -155 8 0 58 34 113 76 138 108 131 103 113 79 -86 -119 -309
-342 -377 -378 -104 -55 -208 -46 -290 27 -28 25 -42 32 -35 20 20 -37 80 -83
124 -95 24 -6 71 -9 106 -6 132 10 246 95 446 331 123 147 210 240 248 267 16
12 50 24 76 29 l47 8 -48 1 c-64 1 -108 -22 -247 -134 -133 -106 -185 -145
-193 -145 -3 0 12 37 33 83 79 168 78 230 -4 198z"/>
<path d="M2583 1930 c-13 -5 -23 -15 -23 -21 0 -6 -11 -37 -26 -68 -24 -54
-27 -57 -87 -77 -34 -12 -70 -25 -80 -29 -15 -6 -17 -4 -11 19 9 38 -18 44
-80 17 l-51 -22 -14 21 c-51 75 -237 -67 -229 -175 3 -37 5 -40 37 -43 18 -2
46 2 62 8 37 16 116 101 125 135 4 16 20 33 45 45 74 38 77 20 14 -100 -24
-46 -43 -85 -41 -87 11 -11 40 17 80 77 25 38 57 77 71 86 24 15 106 37 113
29 2 -2 -17 -44 -42 -94 -25 -50 -46 -93 -46 -96 0 -16 26 1 65 43 34 36 48
45 59 37 141 -97 161 -105 220 -85 43 14 59 32 18 21 -38 -11 -92 8 -141 50
-22 19 -40 36 -40 39 0 3 26 18 60 33 62 29 87 61 75 94 -7 17 -8 17 -18 -2
-20 -37 -53 -67 -100 -91 -49 -25 -88 -31 -88 -15 0 6 18 52 41 103 22 51 47
108 55 126 15 34 13 36 -23 22z m-417 -185 c4 -8 3 -23 -1 -32 -5 -10 -9 -22
-9 -28 -2 -25 -51 -87 -79 -101 -28 -15 -31 -15 -44 1 -15 21 -8 57 19 102 37
61 101 94 114 58z"/>
<path d="M319 1813 c-13 -16 -12 -17 4 -4 9 7 17 15 17 17 0 8 -8 3 -21 -13z"/>
<path d="M875 1760 c-3 -6 1 -7 9 -4 18 7 21 14 7 14 -6 0 -13 -4 -16 -10z"/>
<path d="M956 1745 c-9 -26 -7 -32 5 -12 6 10 9 21 6 23 -2 3 -7 -2 -11 -11z"/>
<path d="M890 1669 c0 -5 5 -7 10 -4 6 3 10 8 10 11 0 2 -4 4 -10 4 -5 0 -10
-5 -10 -11z"/>
<path d="M1563 1155 c-61 -26 -88 -105 -58 -169 29 -61 95 -82 155 -51 36 18
41 40 8 28 -71 -24 -128 16 -128 88 0 47 12 74 41 89 28 16 55 4 69 -30 17
-40 30 -38 30 5 0 29 -5 37 -26 45 -33 13 -52 12 -91 -5z"/>
<path d="M278 1148 c17 -17 17 -205 0 -211 -7 -3 29 -6 80 -6 l92 -1 0 30 c0
34 -14 39 -30 10 -8 -15 -21 -20 -51 -20 l-40 0 3 43 c3 41 4 42 41 45 46 4
39 22 -9 22 -35 0 -35 1 -32 38 3 35 5 37 40 40 29 3 38 -1 43 -17 10 -31 25
-25 25 9 l0 30 -87 0 c-68 0 -84 -3 -75 -12z"/>
<path d="M481 1081 c-11 -7 -11 -10 2 -17 11 -6 17 -27 19 -68 4 -72 22 -90
67 -65 23 14 29 14 37 3 5 -9 18 -12 32 -8 25 7 30 24 7 24 -12 0 -15 14 -15
70 0 72 -5 79 -44 64 -20 -8 -21 -24 -1 -24 11 0 15 -11 15 -43 0 -46 -13 -67
-41 -67 -22 0 -29 20 -29 86 0 45 -3 54 -17 54 -10 0 -24 -4 -32 -9z"/>
<path d="M690 1080 c-12 -8 -12 -10 3 -16 25 -9 24 -109 0 -123 -14 -8 -5 -10
37 -10 47 0 52 2 32 11 -20 10 -23 18 -20 62 2 39 7 52 21 54 10 2 17 -3 17
-13 0 -27 25 -11 28 18 3 23 -1 27 -20 27 -13 0 -29 -5 -36 -12 -9 -9 -12 -9
-12 0 0 14 -29 16 -50 2z"/>
<path d="M865 1065 c-59 -58 -2 -160 79 -139 85 21 68 164 -20 164 -24 0 -43
-8 -59 -25z m79 -7 c21 -29 21 -92 0 -109 -39 -32 -82 57 -50 105 20 32 30 32
50 4z"/>
<path d="M1030 1080 c-12 -8 -12 -10 3 -16 14 -5 17 -21 17 -104 0 -69 -4
-100 -12 -103 -7 -3 10 -5 37 -5 28 0 42 2 33 5 -13 3 -18 14 -18 37 0 30 2
33 25 29 36 -7 85 44 85 89 0 46 -24 78 -59 78 -15 0 -33 -6 -40 -12 -11 -10
-14 -10 -18 0 -5 14 -32 16 -53 2z m114 -26 c34 -33 11 -120 -30 -112 -15 3
-20 13 -22 57 -2 37 1 57 10 62 18 12 24 11 42 -7z"/>
<path d="M1260 1070 c-65 -65 -3 -175 80 -140 39 16 39 31 0 24 -34 -7 -60 9
-60 37 0 16 8 19 43 19 24 0 46 3 50 6 8 8 -11 57 -26 66 -22 14 -67 8 -87
-12z m70 -10 c15 -27 5 -40 -31 -40 -33 0 -35 6 -13 38 19 27 30 28 44 2z"/>
<path d="M1748 1079 c-22 -12 -24 -49 -3 -49 8 0 15 9 15 19 0 23 23 34 39 18
21 -21 12 -45 -23 -57 -43 -14 -60 -33 -51 -59 8 -26 38 -35 65 -21 15 8 25 8
34 1 8 -6 21 -9 30 -5 18 7 22 24 6 24 -5 0 -10 23 -10 51 0 68 -13 89 -53 89
-18 0 -40 -5 -49 -11z m62 -104 c0 -18 -5 -25 -20 -25 -25 0 -38 29 -19 41 25
15 39 10 39 -16z"/>
<path d="M1910 1079 c-11 -8 -12 -12 -2 -16 16 -6 16 -105 0 -121 -9 -9 -2
-12 31 -12 36 0 42 2 32 14 -7 8 -11 36 -9 63 3 44 5 48 28 48 23 0 25 -4 28
-48 2 -27 -2 -55 -9 -63 -10 -12 -5 -14 31 -14 36 0 41 2 31 14 -7 8 -11 36
-9 63 3 44 5 48 28 48 23 0 25 -4 28 -48 2 -27 -2 -55 -9 -63 -10 -12 -4 -14
32 -14 33 0 40 3 31 12 -7 7 -12 34 -12 61 0 26 -5 57 -10 68 -12 21 -59 26
-77 8 -8 -8 -17 -7 -32 2 -16 11 -27 11 -51 2 -17 -7 -32 -7 -36 -2 -7 12 -25
11 -44 -2z"/>
<path d="M2211 1081 c-9 -6 -10 -11 -2 -15 16 -10 15 -203 -1 -209 -7 -3 10
-6 37 -6 39 0 46 2 33 10 -11 6 -18 22 -18 40 0 18 4 28 10 24 19 -12 71 7 86
31 21 32 20 90 -2 115 -19 21 -64 25 -82 7 -9 -9 -12 -9 -12 0 0 14 -29 16
-49 3z m117 -78 c-3 -49 -23 -71 -52 -60 -23 9 -23 102 1 116 33 18 54 -5 51
-56z"/>
<path d="M2410 1079 c-11 -8 -12 -12 -2 -16 7 -3 12 -25 12 -58 0 -35 5 -59
16 -69 18 -19 25 -20 58 -5 19 9 29 9 39 0 8 -6 22 -9 31 -5 18 7 22 24 6 24
-6 0 -10 30 -10 70 0 75 -5 80 -55 61 -18 -7 -18 -8 -1 -18 13 -7 17 -20 14
-59 -3 -45 -5 -49 -28 -49 -24 0 -25 3 -28 68 -2 55 -6 67 -20 67 -9 0 -24 -5
-32 -11z"/>
<path d="M2625 1067 c-21 -32 -12 -51 36 -72 25 -12 39 -25 39 -37 0 -25 -46
-24 -60 2 -14 26 -30 26 -30 0 0 -47 101 -51 122 -5 13 30 0 49 -50 73 -38 18
-43 32 -17 47 12 8 21 5 35 -12 10 -13 21 -23 25 -23 3 0 5 10 3 23 -2 18 -10
23 -45 25 -35 3 -44 -1 -58 -21z"/>
<path d="M883 763 c339 -2 895 -2 1235 0 339 1 61 2 -618 2 -679 0 -957 -1
-617 -2z"/>
<path d="M336 571 c-45 -30 -66 -70 -66 -126 0 -82 42 -131 126 -149 30 -7
104 14 104 29 0 3 -9 1 -19 -5 -35 -18 -90 -12 -115 13 -46 46 -46 188 0 234
28 28 10 30 -30 4z"/>
<path d="M517 583 c-4 -7 -15 -9 -23 -6 -12 4 -10 -3 7 -30 20 -31 25 -33 27
-17 5 32 -2 67 -11 53z"/>
<path d="M598 583 c9 -3 12 -40 12 -134 0 -125 -1 -130 -22 -139 -17 -6 -3 -9
52 -9 55 0 69 3 53 9 -22 9 -23 14 -23 133 0 82 4 127 12 135 9 9 0 12 -42 11
-30 0 -49 -3 -42 -6z"/>
<path d="M741 553 c0 -21 3 -31 6 -23 11 30 37 50 65 50 l28 0 0 -130 c0 -126
-1 -131 -22 -140 -17 -6 -3 -9 52 -9 55 0 69 3 53 9 -22 9 -23 14 -23 140 l0
130 29 0 c20 0 35 -8 45 -22 l16 -22 0 27 0 27 -125 0 -125 0 1 -37z"/>
<path d="M1042 578 c9 -7 34 -46 57 -86 33 -59 41 -84 41 -123 0 -42 -3 -51
-22 -59 -17 -6 -3 -9 52 -9 57 0 69 3 52 10 -22 8 -23 14 -20 73 1 35 0 62 -4
60 -4 -2 -23 25 -44 62 -30 53 -34 68 -23 75 9 6 -7 9 -45 9 -50 0 -57 -2 -44
-12z"/>
<path d="M1257 579 c6 -6 9 -19 6 -28 -4 -13 -3 -13 7 1 6 10 18 22 28 27 14
8 10 10 -17 11 -26 0 -32 -3 -24 -11z"/>
<path d="M1504 571 c-65 -39 -84 -146 -39 -213 34 -50 100 -76 155 -59 21 6
42 16 46 22 4 8 0 8 -14 0 -11 -6 -39 -11 -61 -11 -49 0 -76 29 -86 95 -9 62
11 151 38 170 32 22 -1 19 -39 -4z"/>
<path d="M1637 576 c12 -9 29 -27 38 -39 15 -21 15 -21 15 9 0 18 -5 31 -12
31 -7 0 -24 3 -38 7 l-25 8 22 -16z"/>
<path d="M1950 571 c5 -11 10 -68 10 -126 0 -58 -5 -115 -10 -126 -10 -18 -7
-19 37 -18 26 0 42 3 36 6 -10 3 -13 42 -13 144 l0 139 -35 0 c-32 0 -35 -2
-25 -19z"/>
<path d="M2068 453 c2 -104 0 -138 -10 -144 -8 -6 4 -9 32 -9 l45 0 -3 145 -3
145 -32 0 -32 0 3 -137z"/>
<path d="M1783 488 c-12 -6 -29 -26 -39 -46 -13 -29 -14 -41 -5 -73 6 -21 21
-45 34 -54 25 -18 46 -20 29 -3 -7 7 -12 42 -12 88 0 46 5 81 12 88 14 14 10
14 -19 0z"/>
<path d="M1848 487 c18 -21 25 -96 14 -144 -9 -40 -9 -42 9 -32 23 12 49 60
49 89 0 34 -26 75 -56 89 -23 10 -26 10 -16 -2z"/>
<path d="M2268 489 c6 -7 12 -26 12 -41 0 -25 -3 -28 -35 -28 -36 0 -36 0 -29
36 6 34 5 35 -14 25 -26 -14 -45 -70 -36 -107 15 -65 82 -95 130 -59 16 13 16
14 1 9 -27 -10 -65 4 -71 26 -3 11 -9 29 -12 40 -5 18 -1 20 50 20 44 0 56 3
56 16 0 24 -18 53 -43 65 -18 9 -20 9 -9 -2z"/>
<path d="M2400 489 c-46 -18 -54 -65 -18 -99 24 -22 62 -30 40 -8 -7 7 -12 30
-12 53 0 23 5 46 12 53 14 14 12 14 -22 1z"/>
<path d="M2475 457 c4 -18 2 -45 -4 -60 -12 -31 -5 -34 28 -11 19 14 22 23 18
55 -4 30 -1 39 12 42 9 3 -1 5 -22 6 -38 1 -38 1 -32 -32z"/>
<path d="M2591 464 c-31 -39 -29 -107 4 -139 28 -28 79 -33 109 -10 17 13 16
14 -16 8 -29 -4 -38 -1 -52 18 -9 13 -16 34 -16 46 0 21 4 23 55 23 41 0 55 4
55 14 0 25 -12 46 -32 57 -18 10 -19 8 -12 -25 l6 -36 -37 0 c-37 0 -37 1 -33
35 5 42 -3 44 -31 9z"/>
<path d="M2377 342 c-36 -40 -9 -62 78 -62 48 0 58 -3 62 -20 7 -25 23 -16 23
14 0 33 -19 46 -69 46 -49 0 -65 7 -72 28 -3 10 -9 9 -22 -6z"/>
<path d="M2364 256 c-7 -18 8 -41 23 -35 5 2 3 15 -3 29 -12 22 -14 22 -20 6z"/>
</g>
</svg>
