<?xml version="1.0" standalone="no"?>
<!DOCTYPE svg PUBLIC "-//W3C//DTD SVG 20010904//EN"
 "http://www.w3.org/TR/2001/REC-SVG-20010904/DTD/svg10.dtd">
<svg version="1.0" xmlns="http://www.w3.org/2000/svg"
 width="200.000000pt" height="200.000000pt" viewBox="0 0 200.000000 200.000000"
 preserveAspectRatio="xMidYMid meet">

<g transform="translate(0.000000,200.000000) scale(0.100000,-0.100000)"
fill="#000000" stroke="none">
<path d="M905 1950 c-4 -6 -15 -8 -25 -5 -9 3 -30 0 -46 -6 -16 -6 -38 -13
-49 -15 -63 -12 -75 -17 -69 -26 4 -6 -2 -5 -15 1 -27 15 -27 7 2 -19 14 -14
16 -19 6 -15 -10 4 -20 2 -24 -4 -3 -6 -11 -11 -16 -11 -6 0 -8 4 -5 9 4 5 0
12 -6 15 -7 3 -2 3 12 -1 22 -5 23 -4 11 11 -13 15 -15 15 -32 0 -10 -9 -23
-13 -30 -8 -8 5 -10 3 -4 -6 6 -10 4 -12 -8 -7 -9 3 -27 -3 -40 -13 -13 -11
-28 -16 -33 -12 -5 4 -2 -1 6 -12 16 -21 22 -46 11 -46 -4 0 -16 10 -27 23
-10 12 -12 16 -4 10 8 -7 19 -13 25 -13 5 0 1 7 -10 16 -18 13 -21 12 -38 -8
-10 -13 -16 -16 -12 -8 4 8 -3 4 -15 -10 -12 -14 -19 -18 -15 -10 4 8 -5 3
-19 -12 -14 -16 -29 -28 -35 -28 -11 0 -101 -84 -101 -94 0 -4 6 -4 12 0 7 4
5 -2 -6 -14 -10 -12 -23 -19 -27 -16 -5 3 -12 -3 -16 -13 -8 -21 -29 -44 -35
-38 -2 2 -10 -6 -17 -18 -12 -19 -12 -21 0 -12 8 6 7 3 -2 -6 -16 -15 -16 -17
-1 -33 11 -11 12 -16 4 -16 -7 0 -10 -5 -6 -11 5 -8 10 -6 16 5 5 9 6 21 3 26
-3 6 -2 10 4 10 5 0 9 -13 9 -30 -1 -16 -5 -27 -10 -24 -4 3 -8 1 -8 -5 0 -5
-8 -8 -17 -6 -18 3 -19 7 -8 38 4 10 3 17 -5 17 -6 0 -8 -5 -5 -10 3 -6 0 -13
-8 -16 -13 -5 -15 -10 -19 -54 -2 -14 -7 -19 -17 -15 -9 3 -12 3 -9 -1 4 -3 1
-13 -7 -21 -21 -20 -19 -39 2 -22 15 13 15 12 4 -9 -7 -12 -15 -21 -19 -18 -4
2 -8 -7 -9 -21 0 -15 2 -21 5 -16 5 7 12 5 22 -5 13 -14 12 -15 -3 -9 -20 7
-46 -16 -48 -44 -2 -32 -4 -37 -11 -45 -5 -4 -8 -17 -7 -28 1 -18 2 -18 9 4 5
15 8 18 9 8 2 -26 -10 -49 -21 -42 -6 4 -8 -1 -4 -14 4 -11 2 -23 -4 -27 -5
-3 -10 -11 -10 -16 0 -6 4 -8 9 -4 5 3 9 -8 9 -25 -1 -16 -5 -30 -10 -30 -4 0
-8 -10 -8 -22 0 -19 2 -20 11 -8 8 11 9 8 5 -17 -3 -20 -1 -33 7 -37 7 -2 5
-5 -5 -5 -11 -1 -15 -7 -11 -21 3 -11 9 -18 13 -15 9 6 24 -64 16 -73 -3 -3
-6 2 -6 11 0 9 -4 18 -9 21 -12 8 -2 -35 13 -53 9 -12 8 -13 -4 -6 -11 7 -10
2 3 -19 11 -15 17 -36 14 -46 -4 -14 1 -16 27 -14 23 3 27 1 16 -6 -13 -9 -13
-11 0 -21 13 -9 13 -10 -2 -6 -10 4 -19 -1 -23 -11 -3 -9 -3 -13 1 -9 4 4 13
-1 20 -11 9 -13 10 -20 1 -31 -10 -12 -9 -13 2 -6 11 6 13 4 8 -9 -4 -10 -3
-15 3 -11 5 3 8 23 5 43 -3 30 -2 33 7 18 5 -10 8 -33 5 -50 -3 -18 -1 -39 4
-47 5 -8 9 -10 9 -5 0 5 9 1 19 -8 10 -10 21 -14 23 -9 3 4 3 2 1 -5 -1 -8 -3
-23 -3 -33 0 -12 -4 -17 -11 -13 -8 5 -8 1 0 -14 6 -12 16 -24 23 -28 7 -4 8
-3 4 4 -8 14 3 15 23 3 11 -7 11 -10 -1 -17 -12 -8 -11 -12 4 -26 10 -10 21
-18 25 -18 4 0 8 -8 8 -17 0 -9 6 -18 14 -21 8 -3 11 0 7 7 -4 6 -2 11 4 11 6
0 10 -6 8 -13 -2 -6 7 -27 20 -44 19 -27 26 -30 37 -20 7 6 10 16 7 21 -3 5 0
6 6 2 6 -4 8 -14 5 -23 -4 -11 -2 -14 5 -9 14 8 52 -10 52 -26 0 -6 -9 -3 -19
6 -11 10 -25 15 -30 11 -7 -4 0 -15 16 -29 22 -18 38 -23 75 -20 26 1 52 5 57
8 10 7 9 -13 -2 -31 -4 -6 -3 -14 2 -17 5 -4 12 -2 16 4 3 5 12 10 18 10 7 0
1 -9 -13 -20 -32 -24 -20 -35 40 -34 31 0 47 -3 43 -9 -4 -7 1 -8 13 -3 28 12
39 12 39 1 0 -5 -8 -9 -18 -8 -11 2 -15 -1 -11 -8 4 -8 0 -8 -15 0 -11 7 -21
8 -21 4 0 -4 -4 -2 -9 6 -6 9 -11 10 -15 2 -6 -9 7 -16 17 -8 2 1 11 -4 19
-11 9 -7 24 -9 33 -5 11 4 16 2 12 -3 -3 -6 12 -11 36 -13 23 -1 45 -7 49 -14
4 -7 8 -8 8 -3 0 6 5 5 12 -2 7 -7 19 -12 28 -12 13 0 13 2 0 11 -12 8 -10 9
10 5 14 -3 30 -6 35 -7 6 0 1 -4 -10 -9 -22 -9 145 -4 180 6 12 3 15 2 8 -3
-6 -5 9 -8 37 -8 26 0 44 3 38 6 -5 3 1 9 14 12 33 10 46 7 23 -4 -17 -8 -17
-9 5 -4 14 2 33 5 43 5 10 0 15 5 12 10 -4 6 8 10 28 10 29 0 33 3 32 22 -3
39 4 49 26 35 18 -11 18 -12 -4 -25 l-22 -13 24 7 c16 4 21 3 17 -5 -9 -14 -7
-14 33 0 33 11 40 24 19 33 -7 3 1 3 17 0 24 -5 27 -3 15 6 -12 9 -9 10 14 5
23 -5 27 -3 23 10 -4 9 1 20 13 27 11 7 20 19 20 26 0 10 -4 10 -16 -2 -19
-20 -20 -20 -20 2 0 13 8 18 26 17 19 0 24 -5 22 -19 -3 -14 1 -17 13 -12 10
4 14 2 9 -6 -4 -7 -3 -8 5 -4 6 4 9 18 7 32 -5 28 -3 30 15 7 12 -14 12 -16 0
-8 -10 6 -12 4 -6 -4 5 -9 16 -5 39 16 17 15 33 29 35 30 2 2 -6 3 -18 3 -13
0 -25 -9 -31 -22 l-9 -23 0 23 c-1 17 6 24 29 28 17 4 30 11 30 16 0 5 -4 6
-10 3 -5 -3 -10 -1 -10 5 0 7 7 9 16 6 9 -3 18 -6 20 -6 3 0 2 -4 -1 -10 -3
-6 1 -7 9 -4 8 3 18 14 21 23 3 10 19 28 36 40 25 19 29 27 24 51 -6 26 -3 30
22 37 15 4 32 7 37 8 5 0 11 11 13 24 4 28 10 36 26 36 5 0 11 10 12 22 1 12
-2 20 -7 17 -5 -4 -7 -13 -3 -23 5 -12 4 -13 -6 -4 -16 16 6 44 28 36 12 -5
14 0 9 28 -3 19 -3 28 0 22 3 -7 10 -13 15 -13 6 0 6 7 0 18 -6 12 -6 23 1 33
8 11 9 11 4 -3 -3 -10 -1 -20 3 -23 11 -6 24 37 37 120 4 21 13 45 20 53 17
16 19 46 2 36 -7 -5 -8 -3 -4 5 5 7 8 28 8 47 0 19 3 32 7 30 9 -6 9 174 0
189 -3 6 -6 24 -7 40 -1 23 0 27 8 15 8 -11 9 -7 4 15 -4 17 -12 33 -18 37 -6
5 -7 8 -1 8 6 0 4 4 -3 8 -7 5 -13 29 -14 54 -1 27 -6 44 -12 41 -5 -4 -7 1
-3 9 3 9 -1 25 -8 36 -8 10 -11 23 -7 27 4 5 1 5 -6 1 -8 -5 -10 -12 -4 -19 6
-8 2 -18 -10 -29 -10 -10 -18 -14 -18 -9 0 6 5 13 10 16 6 3 10 11 10 16 0 6
-6 7 -12 3 -9 -6 -9 -3 0 9 8 9 10 22 6 28 -5 8 -3 9 7 3 11 -6 10 -3 -2 16
-8 13 -26 25 -39 27 -20 3 -22 1 -12 -9 15 -15 16 -28 2 -28 -5 0 -10 5 -10
12 0 6 -9 21 -20 33 -14 15 -16 24 -9 35 9 13 10 12 5 -2 -3 -10 -1 -18 4 -18
6 0 10 6 10 13 0 6 5 4 11 -6 6 -9 15 -14 21 -11 7 5 8 2 3 -6 -5 -8 -4 -11 3
-6 6 4 9 13 5 22 -7 19 -58 45 -69 36 -5 -4 0 3 10 16 19 22 17 26 -19 23 -15
-1 -17 0 -7 7 22 15 -7 54 -35 47 -12 -3 -25 0 -29 7 -5 7 -2 9 9 5 12 -4 14
-2 10 10 -5 12 -3 14 8 9 8 -4 -2 6 -21 22 -19 17 -38 28 -42 26 -4 -3 -15 4
-24 15 -9 10 -24 17 -33 14 -13 -4 -13 -2 1 7 16 10 14 13 -15 40 -25 22 -35
26 -46 17 -11 -9 -15 -9 -19 1 -2 7 -19 19 -38 27 -25 10 -32 18 -27 31 4 12
3 15 -6 10 -7 -5 -18 0 -27 10 -9 11 -13 14 -10 8 6 -12 -23 -29 -32 -19 -3 3
-1 5 5 5 12 0 13 29 1 31 -9 2 -24 5 -35 9 -5 1 -17 2 -28 1 -16 -2 -17 0 -5
8 12 8 11 10 -5 10 -33 1 -69 6 -80 13 -5 3 -26 8 -45 12 -25 4 -29 3 -15 -3
15 -7 8 -9 -27 -8 -41 2 -45 4 -31 15 15 11 15 12 1 12 -9 0 -25 3 -35 6 -11
4 -14 3 -6 -3 6 -4 -22 -8 -67 -8 -43 0 -76 3 -73 8 2 4 0 7 -6 7 -5 0 -13 -5
-16 -10z m-35 -20 c-8 -5 -24 -9 -35 -9 -16 1 -16 2 5 9 35 11 48 11 30 0z
m47 -6 c-3 -3 -12 -4 -19 -1 -8 3 -5 6 6 6 11 1 17 -2 13 -5z m426 -49 c15 2
25 -1 22 -5 -3 -5 -13 -6 -22 -3 -10 4 -14 2 -10 -4 7 -11 -22 -28 -31 -18 -3
3 1 5 9 5 9 0 5 8 -11 21 -18 14 -19 18 -5 11 11 -6 32 -9 48 -7z m-703 -20
c-7 -8 -17 -15 -23 -15 -6 0 -2 7 9 15 25 19 30 19 14 0z m-35 -35 c3 -5 -1
-10 -10 -10 -9 0 -13 5 -10 10 3 6 8 10 10 10 2 0 7 -4 10 -10z m-56 -57 c2
-2 -10 -1 -28 1 -17 2 -35 7 -39 11 -4 4 4 4 17 0 18 -6 22 -4 15 6 -6 11 -3
10 12 -1 10 -8 21 -16 23 -17z m941 17 c18 -12 2 -12 -25 0 -13 6 -15 9 -5 9
8 0 22 -4 30 -9z m-850 -18 c0 -13 -12 -22 -22 -16 -10 6 -1 24 13 24 5 0 9
-4 9 -8z m-192 -22 c-7 -11 -16 -20 -20 -20 -5 0 -3 9 4 20 7 11 16 20 20 20
5 0 3 -9 -4 -20z m-48 -13 c0 -2 -12 -14 -27 -28 l-28 -24 24 28 c23 25 31 32
31 24z m1146 -39 c-2 -18 4 -26 28 -35 19 -8 23 -12 11 -11 -11 0 -28 -2 -38
-7 -11 -5 -23 -3 -30 5 -10 10 -7 11 13 6 22 -6 23 -5 9 6 -21 17 -22 25 -7
43 17 19 18 19 14 -7z m-1130 -1 c8 3 14 1 14 -5 0 -14 -24 -22 -40 -12 -7 5
-9 13 -4 21 5 9 9 10 11 2 3 -7 11 -9 19 -6z m219 3 c3 -5 -3 -10 -14 -10 -12
0 -21 5 -21 10 0 6 6 10 14 10 8 0 18 -4 21 -10z m-160 -20 c3 -5 2 -10 -4
-10 -5 0 -13 5 -16 10 -3 6 -2 10 4 10 5 0 13 -4 16 -10z m855 -27 c-245 -7
-878 -7 -862 -1 9 4 231 6 492 5 261 -1 428 -3 370 -4z m366 0 c-10 -11 -36
-12 -36 -2 0 5 10 9 22 9 12 0 18 -3 14 -7z m-1254 -24 c3 -9 9 -9 25 0 16 8
168 11 533 11 365 0 517 -3 533 -11 16 -9 22 -9 25 0 2 6 8 11 13 11 6 0 7 -5
3 -12 -5 -8 -2 -9 10 -5 12 5 16 2 14 -11 -2 -9 -7 -20 -11 -23 -4 -3 -3 -19
3 -35 13 -33 11 -416 -2 -408 -4 3 -8 -2 -8 -11 0 -9 5 -13 11 -9 7 4 9 -1 5
-15 -3 -11 -9 -31 -12 -42 -4 -14 -2 -19 5 -15 12 8 3 -25 -10 -34 -7 -5 -12
-41 -10 -75 1 -15 3 -17 10 -7 7 11 9 10 14 -3 4 -9 3 -13 -3 -10 -6 3 -10 1
-10 -6 0 -7 -7 -4 -15 7 -17 22 -20 12 -5 -16 7 -13 7 -21 -2 -26 -7 -4 -8 -3
-4 4 4 7 3 12 -2 12 -6 0 -10 -16 -9 -36 1 -19 -4 -39 -11 -43 -11 -7 -20 -36
-21 -74 -1 -10 -4 -16 -9 -13 -4 2 -12 -7 -19 -20 -8 -18 -8 -22 0 -17 7 3 9
2 4 -2 -4 -5 0 -16 8 -25 15 -16 13 -17 -15 -14 -20 2 -29 0 -24 -7 3 -6 -4
-17 -15 -26 -15 -10 -20 -21 -15 -35 4 -13 2 -18 -4 -14 -6 3 -14 2 -17 -4 -9
-15 4 -70 17 -70 6 0 7 8 3 17 -5 14 -3 15 6 6 29 -29 -21 -41 -58 -13 -10 8
-15 11 -11 6 6 -8 -139 -162 -151 -160 -3 1 -15 -7 -26 -19 -11 -11 -14 -16
-6 -12 9 5 12 4 7 -3 -4 -7 -1 -12 6 -12 8 0 5 -5 -5 -11 -14 -8 -22 -8 -30 1
-9 8 -7 10 8 5 16 -5 17 -5 5 3 -17 13 -33 5 -26 -13 2 -7 -1 -18 -7 -25 -10
-10 -8 -12 6 -7 11 4 16 3 12 -4 -4 -6 -13 -8 -21 -5 -8 3 -14 0 -14 -7 0 -8
-3 -7 -9 2 -7 10 -4 19 7 28 14 11 13 12 -10 2 -29 -13 -35 -24 -18 -34 6 -3
10 -11 10 -17 0 -6 -8 -4 -19 6 -16 15 -20 15 -31 1 -7 -8 -16 -12 -21 -9 -5
3 -6 -2 -3 -10 3 -9 10 -16 15 -16 5 0 9 -4 9 -8 0 -5 -7 -9 -15 -9 -8 0 -12
4 -9 8 2 4 0 10 -6 14 -5 3 -10 1 -10 -4 0 -19 -18 -12 -23 10 -3 12 -10 18
-15 15 -5 -3 -15 1 -22 9 -16 19 -28 19 -32 0 -2 -10 -7 -6 -15 11 -10 22 -10
24 3 14 8 -7 14 -8 14 -2 0 12 -46 29 -80 31 -14 0 -33 1 -42 2 -10 0 -18 5
-18 11 0 6 3 8 7 5 3 -4 12 1 20 11 8 9 12 12 9 6 -7 -15 20 -38 34 -29 15 9
2 25 -16 18 -8 -3 -14 -1 -12 3 2 5 -6 18 -17 29 -11 11 -19 18 -18 16 3 -4
-24 -31 -31 -31 -3 0 -6 7 -6 16 0 8 5 12 10 9 16 -10 12 5 -11 36 -15 21 -26
28 -39 24 -10 -3 -21 -1 -25 5 -3 6 -11 7 -17 4 -7 -4 -8 -2 -4 4 5 9 13 9 29
0 16 -8 13 -2 -12 28 -19 21 -42 39 -52 40 -28 2 -41 15 -36 38 3 11 1 30 -3
41 -9 20 -14 8 -11 -25 2 -13 1 -13 -8 0 -18 26 -13 -8 5 -35 9 -14 14 -25 11
-25 -6 0 -47 64 -47 74 0 3 5 5 12 3 6 -1 14 6 16 16 2 10 -2 17 -12 17 -9 0
-16 5 -16 11 0 5 6 7 13 4 6 -4 4 0 -5 8 -13 10 -15 16 -6 25 9 9 4 11 -20 8
-18 -2 -35 2 -39 8 -3 6 -3 8 2 4 4 -4 14 -3 22 3 10 9 13 8 13 0 0 -7 5 -9
11 -5 8 5 8 9 -1 14 -6 4 -12 11 -12 16 -2 24 -11 44 -20 44 -5 0 -4 -10 2
-22 10 -21 10 -22 -3 -5 -8 10 -13 28 -10 40 4 18 3 19 -6 7 -8 -12 -10 -6 -9
23 1 21 -4 43 -10 49 -7 7 -12 32 -12 56 0 40 -2 43 -17 31 -15 -12 -16 -12
-9 6 9 23 10 26 8 83 -1 23 -6 42 -11 42 -5 0 -8 -8 -6 -17 1 -10 0 -12 -2 -5
-3 6 -9 12 -15 12 -6 0 -1 8 10 19 16 13 22 30 22 57 0 29 -3 35 -10 24 -6 -9
-10 -10 -10 -3 0 6 5 15 10 18 6 4 8 10 5 14 -2 5 -6 44 -9 87 -3 43 -8 87
-11 97 -4 10 -3 17 4 17 14 0 14 45 0 72 -8 15 -8 19 1 13 8 -5 9 3 4 32 -4
21 -8 39 -9 41 -2 2 1 17 5 33 6 20 5 29 -3 29 -7 0 -6 4 3 10 12 8 11 10 -7
10 -13 0 -23 5 -23 11 0 7 10 9 26 5 17 -5 23 -3 19 4 -3 5 -2 10 4 10 5 0 11
-5 13 -11z m-126 -18 c0 -11 -5 -17 -13 -14 -10 4 -11 9 -2 19 15 18 15 18 15
-5z m1412 -36 c-3 -3 -9 2 -12 12 -6 14 -5 15 5 6 7 -7 10 -15 7 -18z m-1453
-4 c-3 -6 -11 -11 -17 -11 -6 0 -6 6 2 15 14 17 26 13 15 -4z m60 -31 c3 -5 1
-10 -4 -10 -6 0 -11 5 -11 10 0 6 2 10 4 10 3 0 8 -4 11 -10z m1375 0 c-8 -5
-19 -10 -25 -10 -5 0 -3 5 5 10 8 5 20 10 25 10 6 0 3 -5 -5 -10z m-1520 -126
c0 -8 -5 -12 -10 -9 -6 4 -8 11 -5 16 9 14 15 11 15 -7z m130 -25 c0 -11 -4
-17 -10 -14 -5 3 -10 13 -10 21 0 8 5 14 10 14 6 0 10 -9 10 -21z m-74 -16
c-10 -10 -19 5 -10 18 6 11 8 11 12 0 2 -7 1 -15 -2 -18z m-89 -12 c-1 -16 -5
-27 -9 -25 -3 2 -8 -2 -11 -8 -2 -7 -8 -10 -12 -6 -4 4 0 14 9 23 9 9 16 23
16 31 0 8 2 14 5 14 2 0 3 -13 2 -29z m1727 -38 c8 -21 -10 -41 -24 -27 -11
11 -3 44 10 44 4 0 11 -8 14 -17z m-1477 -145 c-3 -8 -6 -5 -6 6 -1 11 2 17 5
13 3 -3 4 -12 1 -19z m0 -90 c-3 -7 -5 -2 -5 12 0 14 2 19 5 13 2 -7 2 -19 0
-25z m1185 -106 c3 -11 0 -19 -7 -19 -7 0 -10 8 -7 19 2 10 6 18 7 18 1 0 5
-8 7 -18z m-1167 -22 c-3 -5 -12 -10 -18 -10 -7 0 -6 4 3 10 19 12 23 12 15 0z
m4 -110 c1 -12 -1 -13 -8 -1 -7 11 -9 11 -14 0 -4 -12 -2 35 3 51 2 8 19 -34
19 -50z m1156 1 c0 -21 -3 -37 -7 -34 -14 8 -8 73 7 73 0 0 1 -18 0 -39z m-27
-42 c0 -22 -2 -29 -10 -21 -5 5 -7 19 -3 31 9 29 12 26 13 -10z m-1125 -19
c-7 -8 -22 24 -16 34 4 5 10 1 13 -10 4 -10 6 -21 3 -24z m-36 -41 c2 -16 -1
-19 -9 -11 -5 5 -7 15 -4 21 10 15 12 14 13 -10z m1491 -44 c-16 -30 -21 -33
-14 -7 5 13 3 22 -3 22 -6 0 -11 -5 -11 -11 0 -5 -5 -7 -11 -3 -14 8 8 23 32
21 14 -1 16 -5 7 -22z m-336 -47 c-9 -9 -12 -7 -12 12 0 19 3 21 12 12 9 -9 9
-15 0 -24z m296 -3 c-6 -13 -15 -22 -19 -19 -13 7 -11 23 4 38 18 21 28 9 15
-19z m-1348 -36 c0 -5 -4 -9 -10 -9 -5 0 -10 7 -10 16 0 8 5 12 10 9 6 -3 10
-10 10 -16z m1003 -1 c-9 -10 -22 -18 -30 -18 -9 0 -8 5 5 18 23 25 48 25 25
0z m277 -23 c0 -8 -4 -15 -10 -15 -5 0 -7 7 -4 15 4 8 8 15 10 15 2 0 4 -7 4
-15z m12 -52 c-4 -23 -21 -42 -23 -26 0 4 -2 17 -3 28 -2 13 3 21 14 21 12 0
15 -7 12 -23z m-1562 -53 c-6 -11 -13 -20 -16 -20 -2 0 0 9 6 20 6 11 13 20
16 20 2 0 0 -9 -6 -20z m75 -16 c-9 -9 -19 -13 -23 -10 -3 4 0 11 8 16 24 15
33 11 15 -6z m1470 -4 c3 -6 -1 -7 -9 -4 -18 7 -21 14 -7 14 6 0 13 -4 16 -10z
m-1122 -31 c-9 -9 -12 -7 -10 9 1 14 5 18 11 12 7 -7 6 -14 -1 -21z m703 -2
c1 -17 -1 -24 -3 -14 -2 9 -8 17 -13 17 -5 0 -7 -7 -4 -15 7 -17 3 -18 -21 -9
-14 6 -13 10 12 30 15 13 28 23 28 24 0 0 1 -15 1 -33z m-1039 1 c-3 -8 -6 -5
-6 6 -1 11 2 17 5 13 3 -3 4 -12 1 -19z m263 -18 c0 -5 -4 -10 -10 -10 -5 0
-10 5 -10 10 0 6 5 10 10 10 6 0 10 -4 10 -10z m700 -20 c-6 -11 -8 -26 -4
-33 4 -6 3 -9 -1 -4 -5 4 -20 -3 -33 -15 -19 -18 -18 -13 9 25 34 49 47 61 29
27z m423 -19 c-4 -3 -11 -10 -15 -15 -4 -4 -6 1 -5 12 1 12 6 18 15 15 7 -3
10 -9 5 -12z m-1243 3 c0 -8 -19 -13 -24 -6 -3 5 1 9 9 9 8 0 15 -2 15 -3z
m270 -6 c0 7 5 10 10 7 17 -11 11 -21 -15 -23 -24 -2 -32 8 -18 21 4 4 10 2
15 -5 6 -10 8 -10 8 0z m-364 -47 c0 -15 -3 -17 -13 -9 -7 6 -10 14 -7 19 9
15 20 10 20 -10z m914 15 c0 -2 -7 -7 -16 -10 -8 -3 -12 -2 -9 4 6 10 25 14
25 6z m-566 -87 c-7 -11 -34 -12 -34 -1 0 14 11 21 26 15 8 -3 11 -9 8 -14z
m111 11 c3 -5 1 -10 -4 -10 -6 0 -11 5 -11 10 0 6 2 10 4 10 3 0 8 -4 11 -10z
m362 -12 c-3 -8 -6 -5 -6 6 -1 11 2 17 5 13 3 -3 4 -12 1 -19z m-311 -4 c18
-14 18 -14 -6 -3 -31 14 -36 19 -24 19 6 0 19 -7 30 -16z m554 -14 c0 -5 -5
-10 -11 -10 -5 0 -7 5 -4 10 3 6 8 10 11 10 2 0 4 -4 4 -10z m-453 -47 c0 -16
-2 -22 -4 -15 -3 6 -9 9 -15 6 -5 -3 -4 3 4 15 7 12 13 21 14 21 1 0 1 -12 1
-27z m-53 -12 c-2 -3 -12 3 -22 13 -16 17 -16 18 5 5 12 -7 20 -15 17 -18z
m166 9 c0 -5 -4 -10 -10 -10 -5 0 -10 5 -10 10 0 6 5 10 10 10 6 0 10 -4 10
-10z m285 -10 c3 -5 2 -10 -4 -10 -5 0 -17 -3 -25 -6 -12 -5 -15 -2 -10 10 7
18 29 21 39 6z m-11 -38 c3 -5 -1 -9 -9 -9 -8 0 -12 4 -9 9 3 4 7 8 9 8 2 0 6
-4 9 -8z m-609 -30 c-3 -3 -11 0 -18 7 -9 10 -8 11 6 5 10 -3 15 -9 12 -12z
m210 -32 c-3 -5 -14 -10 -23 -9 -14 0 -13 2 3 9 27 11 27 11 20 0z"/>
<path d="M978 1550 l-496 -5 3 -272 c2 -168 7 -278 14 -290 10 -17 10 -17 11
0 0 11 5 15 11 11 8 -5 8 -1 0 14 -8 15 -8 23 1 28 7 4 8 3 4 -4 -4 -7 -2 -12
3 -12 6 0 11 5 11 11 0 5 5 7 12 3 6 -4 8 -3 5 3 -4 6 0 14 9 17 10 4 14 13
10 22 -4 12 -1 14 14 9 14 -5 23 2 37 27 9 18 17 38 18 43 0 6 9 8 20 7 16 -3
17 -2 6 12 -7 9 -18 13 -25 9 -6 -3 -3 2 6 13 14 15 20 16 30 5 11 -10 10 -11
-4 -6 -10 4 -18 5 -18 2 0 -3 7 -8 16 -11 11 -4 20 5 31 32 9 20 16 42 15 49
-2 6 3 15 9 19 7 4 9 3 5 -4 -3 -6 -1 -14 4 -17 8 -5 5 -14 -7 -28 -14 -18
-12 -17 10 2 27 24 36 38 17 26 -6 -4 -9 3 -7 15 3 22 23 40 42 40 6 -1 2 -5
-8 -11 -9 -5 -17 -15 -17 -21 0 -6 9 -3 20 7 15 13 17 22 9 36 -7 13 -6 25 1
37 10 15 10 14 5 -5 -3 -12 -1 -24 4 -28 7 -4 8 1 4 12 -6 15 -4 16 9 5 13
-11 18 -11 24 0 5 7 9 20 9 28 0 8 8 14 17 14 19 -2 91 79 81 90 -4 3 1 6 10
6 9 0 19 5 23 12 5 7 3 8 -6 3 -9 -5 -11 -4 -6 3 8 13 41 11 53 -3 5 -4 1 -5
-7 0 -12 6 -12 5 -4 -5 12 -12 58 -5 50 9 -6 10 41 8 51 -2 4 -5 -1 -7 -12 -5
-15 2 -19 -2 -17 -16 3 -17 2 -18 -12 -7 -12 10 -16 10 -16 2 0 -7 -5 -9 -12
-5 -7 4 -2 -5 11 -19 13 -15 29 -24 34 -20 6 4 8 0 4 -10 -7 -19 10 -33 34
-29 9 2 19 -4 22 -13 4 -8 2 -15 -4 -15 -6 0 -7 -5 -4 -11 10 -16 18 -2 21 36
2 21 -1 35 -8 35 -6 0 -9 3 -5 6 3 3 13 2 23 -4 9 -5 12 -12 7 -15 -19 -12 -2
-56 26 -66 17 -6 20 -10 9 -10 -10 -1 -18 -7 -18 -13 -1 -7 -7 -2 -15 12 -8
14 -14 19 -15 12 0 -18 91 -122 102 -116 5 3 7 2 6 -3 -3 -9 7 -23 62 -84 58
-65 66 -73 100 -102 25 -21 35 -25 41 -15 5 7 9 8 9 2 0 -5 -5 -15 -12 -22 -9
-9 -8 -16 6 -30 11 -9 16 -12 12 -5 -3 6 -1 13 4 15 15 5 26 513 11 522 -6 4
-8 12 -5 18 6 10 -15 30 -26 25 -3 -1 -228 -4 -502 -7z m-118 -34 c0 -3 -4 -8
-10 -11 -5 -3 -10 -1 -10 4 0 6 5 11 10 11 6 0 10 -2 10 -4z m100 -7 c0 -10
-42 -34 -52 -31 -5 1 -8 -2 -8 -8 0 -13 6 -13 32 1 15 8 12 1 -12 -30 -19 -23
-36 -38 -39 -34 -4 5 -11 12 -16 17 -6 5 -1 6 13 2 13 -5 22 -3 22 3 0 6 -6
11 -12 12 -10 0 -10 2 -1 5 7 3 10 11 7 19 -7 17 27 52 49 52 10 0 17 -4 17
-8z m147 -42 c-3 -8 3 -20 14 -27 14 -11 15 -16 6 -22 -19 -12 -25 -10 -23 9
0 10 -4 18 -11 18 -7 0 -17 5 -24 12 -9 9 -7 11 10 6 12 -3 21 -1 21 6 0 6 3
11 6 11 3 0 4 -6 1 -13z m-265 -36 c-6 -4 -9 -23 -7 -44 2 -22 -1 -35 -7 -31
-5 3 -8 16 -6 29 1 12 -3 29 -10 37 -10 13 -8 16 14 16 14 0 21 -3 16 -7z
m-102 -86 c-7 -9 -15 -13 -17 -11 -7 7 7 26 19 26 6 0 6 -6 -2 -15z m29 -11
c-6 -8 -17 -14 -23 -14 -6 0 -3 5 7 11 9 6 14 15 11 21 -4 7 -2 8 5 4 9 -6 9
-11 0 -22z m506 15 c11 -16 1 -19 -13 -3 -7 8 -8 14 -3 14 5 0 13 -5 16 -11z
m-35 -55 c0 -11 -5 -10 -18 4 -11 9 -17 21 -15 25 7 11 33 -13 33 -29z m32 1
c9 -35 -6 -56 -24 -36 -9 10 -9 12 -1 7 19 -11 23 8 8 38 -10 19 -11 26 -3 24
7 -3 15 -17 20 -33z m88 -105 c3 -1 9 -2 13 -1 5 1 6 -3 2 -9 -5 -8 -11 -8
-19 -1 -7 6 -16 8 -19 4 -4 -3 1 -12 11 -20 11 -10 12 -13 3 -11 -8 2 -20 13
-28 24 -12 19 -11 20 9 18 13 -1 25 -3 28 -4z m-757 -90 c10 -12 9 -12 -4 -2
-9 6 -18 9 -21 6 -3 -3 -9 -1 -12 4 -9 15 22 8 37 -8z m831 10 c-3 -3 -9 -4
-12 -3 -4 1 -12 -3 -18 -8 -8 -6 -13 -5 -17 3 -3 9 5 13 24 13 15 1 26 -2 23
-5z m76 -94 c0 -2 -8 -10 -17 -17 -16 -13 -17 -12 -4 4 13 16 21 21 21 13z"/>
<path d="M1584 1355 c0 -88 2 -123 3 -77 2 46 2 118 0 160 -1 42 -3 5 -3 -83z"/>
<path d="M894 1235 c-4 -8 -4 -21 -1 -29 3 -7 0 -20 -6 -27 -10 -11 -9 -11 6
0 21 16 23 -2 2 -19 -9 -7 -13 -15 -11 -18 12 -12 37 29 31 50 -6 19 -5 21 6
11 15 -15 33 -17 24 -4 -3 5 -1 12 4 15 4 3 8 -4 7 -16 -1 -14 8 -27 24 -35
14 -7 21 -13 16 -13 -5 0 -3 -6 3 -13 6 -8 7 -18 3 -22 -4 -5 -1 -5 6 -1 10 6
10 11 2 21 -8 9 -8 15 0 20 5 3 10 13 10 21 0 8 -5 12 -10 9 -6 -4 -7 -11 -4
-17 5 -7 2 -8 -5 -3 -9 5 -10 10 -2 18 16 16 61 17 61 2 0 -7 8 -19 18 -26 15
-13 16 -12 3 4 -12 15 -12 17 3 11 21 -8 20 -27 -3 -48 -19 -17 -19 -46 1 -46
5 0 7 4 4 9 -3 5 1 12 10 15 25 10 27 7 13 -11 -13 -16 -12 -17 3 -4 12 9 15
19 9 30 -4 9 -7 30 -6 47 2 27 -1 31 -19 27 -17 -3 -17 -2 4 9 48 25 31 33
-62 30 -62 -2 -88 0 -83 7 3 6 1 11 -4 11 -6 0 -11 -7 -11 -16 0 -14 -1 -14
-16 0 -19 20 -23 20 -30 1z m216 -110 c0 -2 -10 -10 -22 -16 -21 -11 -22 -11
-9 4 13 16 31 23 31 12z"/>
<path d="M883 1115 c-8 -23 9 -36 29 -21 15 11 15 13 -3 24 -16 10 -21 10 -26
-3z"/>
<path d="M974 1118 c3 -11 0 -18 -7 -19 -14 0 22 -17 39 -18 7 -1 15 7 19 17
5 14 4 15 -7 4 -10 -10 -16 -8 -31 10 -14 17 -17 18 -13 6z"/>
<path d="M650 962 c0 -8 -8 -10 -25 -6 -27 7 -26 12 -29 -93 -1 -29 2 -53 7
-53 5 0 7 23 4 51 -4 39 -3 49 5 41 9 -9 17 -5 31 16 10 15 17 20 14 11 -3 -9
1 -16 9 -16 10 0 12 7 8 21 -4 16 -3 18 5 7 8 -12 12 -13 28 -2 10 8 4 0 -14
-17 -26 -25 -29 -33 -18 -42 15 -12 9 -44 -6 -34 -12 7 -7 -17 6 -32 6 -6 18
-11 27 -11 13 0 15 4 8 17 -5 10 -7 20 -3 23 3 4 0 13 -6 21 -10 12 -8 16 8
21 12 3 21 11 21 16 0 12 -17 12 -23 -1 -3 -6 -4 -5 -3 2 3 15 36 18 54 5 8
-6 12 -6 12 2 0 6 -5 11 -10 11 -6 0 -15 11 -22 25 -9 19 -14 22 -29 14 -21
-11 -41 -9 -51 6 -5 6 -8 5 -8 -3z m-20 -33 c0 -6 -4 -7 -10 -4 -5 3 -10 11
-10 16 0 6 5 7 10 4 6 -3 10 -11 10 -16z m70 -110 c0 -6 -4 -7 -10 -4 -5 3
-10 11 -10 16 0 6 5 7 10 4 6 -3 10 -11 10 -16z"/>
<path d="M768 957 c6 -6 9 -27 8 -45 -1 -18 2 -36 7 -39 6 -4 7 -1 2 7 -6 9
-4 11 4 5 9 -5 6 -14 -11 -33 -13 -14 -17 -22 -9 -17 11 6 13 3 9 -12 -3 -13
0 -20 9 -20 8 0 12 6 8 15 -4 12 -3 12 9 3 11 -9 16 -9 22 0 4 8 3 9 -4 5 -16
-9 -15 7 0 22 9 9 9 12 0 12 -9 0 -10 5 -2 19 7 14 6 21 -3 24 -9 3 -9 9 -1
23 9 15 8 22 -2 32 -11 10 -14 10 -14 0 0 -9 -3 -9 -12 0 -16 16 -33 15 -20
-1z m42 -107 c0 -5 -8 -10 -17 -10 -15 0 -16 2 -3 10 19 12 20 12 20 0z"/>
<path d="M1210 963 c0 -7 -7 -13 -15 -13 -8 0 -15 -7 -15 -16 0 -8 5 -12 11
-8 7 4 9 0 5 -14 -8 -25 9 -38 22 -17 5 9 17 17 27 19 10 2 20 7 22 12 5 16
-14 37 -26 29 -9 -5 -7 -11 6 -21 13 -11 14 -14 3 -12 -8 2 -20 14 -27 28 -7
14 -12 19 -13 13z m1 -60 c-12 -20 -14 -14 -5 12 4 9 9 14 11 11 3 -2 0 -13
-6 -23z"/>
<path d="M1275 960 c-3 -5 -3 -14 0 -20 3 -5 1 -19 -5 -30 -8 -15 -8 -20 2
-18 7 2 12 -8 12 -22 1 -15 -5 -25 -13 -25 -8 0 -16 -5 -18 -11 -2 -6 9 -9 29
-8 29 3 30 3 8 -4 l-25 -8 28 -6 c34 -7 40 1 23 33 -7 13 -11 30 -8 37 2 6 -1
12 -6 12 -15 0 -23 28 -10 36 7 4 8 3 4 -4 -3 -6 3 -16 15 -22 15 -8 19 -9 15
-1 -4 6 -1 20 7 32 14 20 15 19 25 -10 6 -17 16 -31 21 -31 6 0 10 -6 9 -12
-2 -7 5 -12 15 -12 10 1 16 -3 14 -10 -2 -6 -15 -11 -29 -10 -29 1 -32 -22 -6
-37 18 -10 37 7 39 37 4 34 -2 109 -7 98 -5 -12 -44 -7 -44 5 0 10 -62 8 -77
-2 -9 -6 -11 -3 -7 7 7 18 -1 22 -11 6z m135 -80 c0 -5 -5 -10 -11 -10 -5 0
-7 5 -4 10 3 6 8 10 11 10 2 0 4 -4 4 -10z m-10 -60 c0 -5 -2 -10 -4 -10 -3 0
-8 5 -11 10 -3 6 -1 10 4 10 6 0 11 -4 11 -10z"/>
<path d="M747 945 c3 -8 9 -12 14 -9 12 7 11 11 -5 17 -10 4 -13 1 -9 -8z"/>
<path d="M974 868 c-10 -12 -13 -18 -6 -14 6 4 12 2 12 -3 0 -6 -4 -12 -10
-12 -5 -1 -14 -2 -19 -3 -14 -2 -72 -69 -65 -75 3 -3 12 3 20 13 8 11 14 15
14 8 0 -6 -9 -18 -21 -26 -26 -18 -17 -36 17 -36 16 0 28 8 34 23 5 12 9 16 9
8 1 -15 30 -40 46 -41 6 0 3 5 -5 11 -11 7 -2 9 32 6 45 -3 46 -3 36 17 -6 12
-16 24 -22 28 -6 4 -4 14 9 28 18 20 18 21 -15 55 -19 19 -37 35 -40 35 -4 0
-15 -10 -26 -22z m53 -33 c-7 -7 -14 -9 -15 -4 -2 6 -11 4 -20 -3 -13 -11 -14
-11 -10 2 3 8 13 14 22 13 12 -1 15 4 11 14 -4 13 -3 14 9 4 12 -10 13 -16 3
-26z m-53 -22 c3 -7 0 -12 -7 -10 -7 1 -11 -4 -9 -10 1 -7 -2 -13 -7 -13 -11
0 -20 21 -14 36 5 15 31 13 37 -3z m57 -6 c-10 -9 -11 -8 -5 6 3 10 9 15 12
12 3 -3 0 -11 -7 -18z m-101 -62 c-7 -8 -16 -15 -21 -15 -5 0 -1 8 9 18 20 22
31 19 12 -3z"/>
<path d="M1190 847 c0 -9 0 -20 -1 -24 0 -4 4 -9 10 -11 6 -2 8 6 6 19 -5 27
-15 38 -15 16z"/>
<path d="M621 834 c0 -11 3 -14 6 -6 3 7 2 16 -1 19 -3 4 -6 -2 -5 -13z"/>
<path d="M715 841 c-3 -5 -1 -12 5 -16 5 -3 10 1 10 9 0 18 -6 21 -15 7z"/>
<path d="M1064 796 c-6 -16 12 -56 25 -56 5 0 12 -11 15 -25 7 -28 15 -31 40
-12 17 13 16 15 -15 35 -19 12 -28 22 -21 22 9 0 8 7 -4 25 -18 28 -32 32 -40
11z m66 -76 c0 -5 -5 -10 -11 -10 -5 0 -7 5 -4 10 3 6 8 10 11 10 2 0 4 -4 4
-10z"/>
<path d="M853 733 c-7 -3 -13 -12 -13 -20 0 -13 2 -14 18 -2 15 13 16 12 3 -4
-11 -14 -16 -15 -29 -5 -13 11 -15 10 -9 -5 5 -13 2 -17 -11 -15 -11 2 -17 -3
-16 -14 1 -10 -4 -14 -13 -11 -7 3 -13 2 -11 -3 2 -5 -5 -20 -15 -34 -9 -13
-17 -20 -17 -15 -1 6 -9 -1 -20 -14 -11 -12 -17 -28 -13 -34 4 -6 0 -8 -9 -5
-9 4 -15 0 -15 -8 0 -8 3 -12 5 -9 3 3 11 -4 19 -15 8 -11 22 -20 33 -20 13 0
17 -5 13 -20 -3 -12 0 -20 6 -20 7 0 9 -5 5 -12 -4 -7 -3 -8 4 -4 7 4 12 3 12
-3 0 -6 13 -17 29 -25 16 -9 31 -24 34 -35 4 -15 10 -18 27 -14 15 4 21 2 17
-4 -4 -6 2 -18 13 -28 11 -10 20 -14 20 -9 0 5 4 3 9 -5 5 -8 20 -16 33 -18
17 -2 19 -1 8 6 -8 5 -18 7 -22 5 -4 -3 -8 -1 -8 3 0 17 41 33 80 31 25 -1 47
5 58 15 24 22 32 21 32 0 0 -15 -2 -16 -10 -3 -5 8 -10 10 -10 3 0 -17 -50
-31 -90 -25 -32 5 -34 4 -21 -12 8 -9 20 -15 28 -12 7 3 13 1 13 -4 0 -11 35
-8 46 3 4 3 -3 4 -15 2 -13 -2 -19 0 -15 6 3 6 16 9 28 7 25 -3 69 25 58 37
-4 4 0 6 9 2 19 -6 53 29 43 45 -4 7 -3 8 4 4 6 -4 20 2 31 13 11 11 23 16 27
13 5 -4 2 1 -5 10 -15 20 -33 15 -25 -7 6 -15 -20 -15 -33 0 -4 4 -2 5 5 1 15
-9 16 10 2 19 -13 8 6 35 24 34 7 0 6 -2 -1 -6 -23 -9 -14 -24 11 -19 14 2 27
-1 30 -7 2 -7 5 -3 5 9 1 12 12 26 26 32 14 6 25 16 25 22 0 6 4 9 8 6 5 -3 9
1 9 8 0 8 -6 12 -13 9 -6 -2 -15 1 -20 8 -5 8 -3 10 7 5 8 -4 7 -2 -2 6 -15
12 -19 19 -19 34 0 4 -6 1 -14 -5 -10 -8 -16 -9 -21 -1 -3 5 -1 10 6 10 7 0 5
8 -6 20 -10 11 -15 20 -11 20 4 0 1 7 -8 15 -8 9 -17 14 -19 13 -2 -2 -11 3
-19 10 -17 13 -52 6 -42 -10 3 -5 13 -4 22 4 13 10 13 8 -1 -9 -12 -14 -15
-23 -7 -28 5 -3 7 -11 4 -17 -4 -7 -2 -8 4 -4 7 4 12 2 12 -3 0 -6 -5 -11 -10
-11 -6 0 -5 -8 2 -19 7 -11 16 -17 22 -14 5 4 7 -1 3 -10 -3 -9 -2 -19 3 -22
6 -4 10 -11 10 -16 0 -6 -5 -7 -12 -3 -6 4 -8 3 -5 -3 4 -6 -2 -21 -12 -34
-10 -13 -16 -30 -13 -38 2 -8 0 -11 -5 -8 -6 4 -18 -2 -28 -13 -10 -11 -22
-17 -26 -14 -5 3 -9 1 -9 -4 0 -5 -13 -15 -30 -22 -16 -7 -30 -16 -30 -21 0
-5 -7 -9 -16 -9 -8 0 -13 4 -10 8 3 5 -12 8 -32 6 -57 -3 -58 -4 -38 -19 11
-8 15 -15 9 -15 -5 0 -18 10 -29 22 -10 12 -13 18 -6 14 6 -4 12 -3 12 2 0 6
-8 13 -17 16 -15 6 -15 8 -3 17 11 7 7 8 -12 3 -18 -4 -28 -2 -28 6 0 6 5 8
12 4 7 -4 8 -3 4 5 -4 6 -12 9 -17 6 -5 -4 -9 -2 -9 4 0 6 -7 7 -17 4 -12 -5
-14 -3 -7 8 12 20 14 38 3 45 -5 3 -6 10 -3 16 4 7 2 8 -5 4 -6 -4 -9 -11 -6
-16 3 -5 -3 -14 -12 -20 -16 -9 -16 -10 -1 -8 9 2 16 -1 15 -7 -1 -5 -6 -8
-12 -6 -5 2 -15 4 -22 5 -7 1 -16 6 -20 10 -4 4 -2 6 6 4 7 -2 16 3 19 11 3 9
0 11 -9 6 -8 -5 -11 -4 -6 1 5 5 14 9 20 9 7 0 11 8 11 18 -1 9 2 15 6 12 14
-9 22 15 10 30 -9 10 -7 15 10 20 11 3 18 11 14 16 -3 5 -9 7 -14 4 -5 -3 -11
-1 -14 4 -4 5 -1 13 5 17 8 5 9 3 4 -7 -6 -11 -5 -11 5 -2 7 7 10 19 6 30 -7
17 -8 17 -17 1 -6 -10 -15 -18 -22 -18 -8 0 -7 3 2 9 8 5 11 16 8 26 -4 9 -3
14 3 10 31 -19 65 -9 70 20 1 6 9 8 18 7 9 -2 15 -2 12 0 -3 2 -14 10 -25 19
-11 9 -26 14 -32 12z m335 -67 c-10 -7 -15 -16 -11 -19 3 -4 12 -2 19 4 9 8
12 6 9 -8 -2 -10 -4 -20 -4 -22 -1 -2 -10 4 -22 15 -19 17 -19 19 -3 31 23 17
34 16 12 -1z m-414 -58 c-6 -20 -5 -21 9 -10 12 10 17 10 23 1 4 -8 3 -9 -4
-5 -17 11 -15 -9 3 -24 8 -7 15 -16 15 -21 0 -11 -33 1 -42 15 -4 7 -17 3 -35
-10 -27 -20 -29 -20 -29 -3 0 11 4 19 8 19 4 0 7 6 6 13 -2 6 3 11 9 10 7 -2
18 6 25 17 17 26 21 25 12 -2z m448 5 c-10 -4 -9 -9 4 -24 17 -19 40 -27 29
-10 -3 5 -1 12 4 15 5 4 8 -2 7 -11 -2 -13 -12 -18 -32 -17 -21 0 -28 5 -26
17 2 11 -3 15 -18 12 -11 -2 -18 0 -15 6 4 5 10 7 15 4 4 -3 13 2 20 10 7 9
16 13 19 9 3 -4 0 -9 -7 -11z m-412 -168 c0 -12 -19 -12 -23 0 -4 9 -1 12 9 8
7 -3 14 -7 14 -8z m37 -32 c0 -9 -4 -10 -14 -2 -7 6 -13 12 -13 14 0 1 6 2 13
2 8 0 14 -6 14 -14z m289 0 c-2 -10 -11 -19 -22 -20 -18 -3 -18 -2 1 6 11 5
16 10 12 10 -5 1 -5 6 -2 11 9 15 14 12 11 -7z m-56 -27 c0 -2 -8 -10 -17 -17
-16 -13 -17 -12 -4 4 13 16 21 21 21 13z m-169 -43 c13 -16 12 -17 -3 -4 -10
7 -18 15 -18 17 0 8 8 3 21 -13z"/>
<path d="M733 574 c0 -9 5 -10 19 -3 10 5 18 12 18 14 0 2 -8 3 -18 2 -10 0
-19 -7 -19 -13z"/>
<path d="M925 648 c4 -16 3 -19 -3 -10 -7 11 -12 10 -26 -3 -21 -22 -20 -25 5
-20 25 5 59 33 59 49 0 6 -5 4 -10 -4 -6 -10 -10 -11 -10 -2 0 6 -5 12 -11 12
-6 0 -8 -9 -4 -22z"/>
<path d="M1048 662 c-14 -6 -13 -9 6 -24 22 -16 60 -8 43 9 -5 4 -12 2 -16 -6
-7 -10 -9 -10 -14 3 -3 8 -1 17 6 20 7 2 8 4 2 5 -5 0 -17 -3 -27 -7z"/>
<path d="M1465 660 c3 -5 8 -10 11 -10 2 0 4 5 4 10 0 6 -5 10 -11 10 -5 0 -7
-4 -4 -10z"/>
<path d="M1000 610 c0 -5 5 -10 11 -10 5 0 7 5 4 10 -3 6 -8 10 -11 10 -2 0
-4 -4 -4 -10z"/>
<path d="M870 550 c12 -8 12 -10 1 -10 -10 0 -11 -3 -2 -13 6 -8 9 -16 6 -19
-3 -3 3 -11 12 -19 16 -13 17 -12 4 4 -15 19 -1 23 18 5 10 -11 11 -10 6 5 -4
9 -14 17 -21 17 -11 0 -12 5 -5 18 8 14 5 18 -12 19 -17 2 -19 0 -7 -7z"/>
<path d="M1110 540 c0 -5 5 -10 11 -10 5 0 7 5 4 10 -3 6 -8 10 -11 10 -2 0
-4 -4 -4 -10z"/>
<path d="M1377 534 c-8 -8 3 -34 15 -34 7 0 6 5 -1 13 -6 8 -8 17 -4 20 3 4 4
7 1 7 -2 0 -7 -3 -11 -6z"/>
<path d="M1093 525 c4 -5 -1 -18 -10 -29 -10 -12 -11 -15 -3 -8 21 18 34 15
19 -5 -11 -15 -10 -14 9 1 27 23 27 23 0 37 -13 6 -20 8 -15 4z"/>
<path d="M600 516 c0 -2 6 -9 14 -15 11 -9 16 -9 22 0 4 8 3 9 -4 5 -7 -4 -12
-2 -12 3 0 6 -4 11 -10 11 -5 0 -10 -2 -10 -4z"/>
<path d="M948 508 c5 -5 16 -8 23 -6 8 3 3 7 -10 11 -17 4 -21 3 -13 -5z"/>
<path d="M970 449 c-17 -5 -19 -7 -7 -8 10 -1 16 -5 13 -10 -8 -13 11 -18 46
-13 16 2 28 10 28 19 0 8 -4 11 -10 8 -5 -3 -10 -2 -10 2 0 10 -27 11 -60 2z
m50 -15 c0 -2 -7 -4 -15 -4 -8 0 -15 4 -15 10 0 5 7 7 15 4 8 -4 15 -8 15 -10z"/>
<path d="M982 293 c-6 -2 -9 -9 -6 -15 4 -6 10 -5 15 3 8 12 10 12 18 0 5 -8
11 -9 15 -3 4 8 -18 25 -27 21 -1 0 -8 -3 -15 -6z"/>
<path d="M1860 1300 c0 -5 5 -10 10 -10 6 0 10 5 10 10 0 6 -4 10 -10 10 -5 0
-10 -4 -10 -10z"/>
<path d="M1456 1832 c-4 -7 -4 -12 1 -13 4 0 16 -2 26 -4 9 -2 15 1 11 6 -3 5
-9 7 -14 4 -4 -3 -10 0 -12 7 -3 9 -6 9 -12 0z"/>
<path d="M1516 1797 c3 -10 9 -15 12 -12 3 3 0 11 -7 18 -10 9 -11 8 -5 -6z"/>
<path d="M1630 1711 c0 -5 5 -13 10 -16 6 -3 10 -2 10 4 0 5 -4 13 -10 16 -5
3 -10 2 -10 -4z"/>
<path d="M280 1629 c0 -5 5 -7 10 -4 6 3 10 8 10 11 0 2 -4 4 -10 4 -5 0 -10
-5 -10 -11z"/>
<path d="M1780 1526 c0 -2 7 -7 16 -10 8 -3 12 -2 9 4 -6 10 -25 14 -25 6z"/>
<path d="M97 703 c-4 -3 -7 -11 -7 -17 0 -6 5 -5 12 2 6 6 9 14 7 17 -3 3 -9
2 -12 -2z"/>
<path d="M110 640 c0 -5 5 -10 11 -10 5 0 7 5 4 10 -3 6 -8 10 -11 10 -2 0 -4
-4 -4 -10z"/>
<path d="M166 541 c-4 -6 -2 -11 4 -11 6 0 9 -4 5 -9 -3 -5 -1 -12 4 -15 17
-11 24 15 8 31 -10 10 -17 11 -21 4z"/>
<path d="M1724 419 c-3 -6 -2 -15 3 -20 5 -5 14 0 21 11 10 17 10 20 -2 20 -8
0 -18 -5 -22 -11z"/>
<path d="M470 208 c0 -4 5 -10 10 -13 6 -3 10 -1 10 4 0 6 4 11 9 11 5 0 8 -8
7 -17 0 -10 5 -17 12 -15 6 1 12 -3 12 -9 0 -5 5 -7 10 -4 16 10 0 27 -19 21
-9 -4 -5 2 8 12 l23 19 -41 -1 c-23 0 -41 -4 -41 -8z"/>
<path d="M1465 186 c-17 -12 -17 -13 3 -11 26 2 37 11 24 19 -5 3 -17 -1 -27
-8z"/>
<path d="M988 43 c6 -2 18 -2 25 0 6 3 1 5 -13 5 -14 0 -19 -2 -12 -5z"/>
</g>
</svg>
